<svg xmlns="http://www.w3.org/2000/svg" viewBox="0 0 1200 820" role="img" aria-labelledby="title">
  <title id="title">Brasa burger hero</title>
  <defs>
    <radialGradient id="glow" cx="62%" cy="44%" r="52%">
      <stop offset="0" stop-color="#ffb52f" stop-opacity=".55"/>
      <stop offset=".42" stop-color="#b04b17" stop-opacity=".18"/>
      <stop offset="1" stop-color="#05090a" stop-opacity="0"/>
    </radialGradient>
    <linearGradient id="bun" x1="0" x2="0" y1="0" y2="1">
      <stop offset="0" stop-color="#ef9c33"/>
      <stop offset=".46" stop-color="#9a4819"/>
      <stop offset="1" stop-color="#56240e"/>
    </linearGradient>
    <linearGradient id="meat" x1="0" x2="1">
      <stop offset="0" stop-color="#28100a"/>
      <stop offset=".45" stop-color="#6f2d15"/>
      <stop offset="1" stop-color="#130705"/>
    </linearGradient>
    <filter id="soft" x="-20%" y="-20%" width="140%" height="140%">
      <feGaussianBlur stdDeviation="18"/>
    </filter>
  </defs>
  <rect width="1200" height="820" fill="#05090a"/>
  <circle cx="760" cy="385" r="360" fill="url(#glow)"/>
  <g opacity=".58" filter="url(#soft)">
    <path d="M698 164c92 56 11 120 80 186 77 74 226 36 254 153 22 91-34 154-112 189" fill="none" stroke="#f7efe0" stroke-width="18" stroke-linecap="round"/>
    <path d="M872 120c-56 84 26 141-12 223-37 81-149 95-164 184" fill="none" stroke="#ffffff" stroke-width="10" stroke-linecap="round" opacity=".45"/>
  </g>
  <g transform="translate(455 220)">
    <ellipse cx="360" cy="420" rx="322" ry="42" fill="#000" opacity=".58" filter="url(#soft)"/>
    <path d="M62 265c24-102 142-174 294-174 158 0 286 72 318 174H62z" fill="url(#bun)"/>
    <path d="M92 251c40-70 139-111 262-111 126 0 229 42 276 112" fill="none" stroke="#ffce7a" stroke-width="11" stroke-linecap="round" opacity=".7"/>
    <path d="M130 315c45 34 84 36 130 4 47 32 94 29 137-3 49 34 92 33 135 0 34 29 70 31 106 11v60H113z" fill="#f6b326"/>
    <path d="M86 360c48-22 87-17 126 2 50 25 92 21 135 0 48-24 95-24 143-2 52 23 99 21 150-3l20 65H70z" fill="url(#meat)"/>
    <path d="M95 418c61-14 115-5 167 12 64 22 117 19 173 0 79-27 150-19 220 16l-17 50H102z" fill="#4d140d"/>
    <path d="M84 494c80 18 155 19 225 3 76-18 146-19 220-2 51 12 97 12 140 0-18 65-112 106-286 106-171 0-278-40-299-107z" fill="url(#bun)"/>
    <g fill="#f1e2b8" opacity=".86">
      <ellipse cx="206" cy="143" rx="10" ry="4" transform="rotate(15 206 143)"/>
      <ellipse cx="311" cy="121" rx="10" ry="4" transform="rotate(-18 311 121)"/>
      <ellipse cx="434" cy="136" rx="10" ry="4" transform="rotate(12 434 136)"/>
      <ellipse cx="545" cy="161" rx="10" ry="4" transform="rotate(-12 545 161)"/>
    </g>
    <path d="M111 395c68 26 132 28 193 3 77-31 140-28 207 2 49 22 96 21 142-3" fill="none" stroke="#7cc353" stroke-width="18" stroke-linecap="round" opacity=".95"/>
  </g>
  <g fill="#ff9d27" opacity=".72">
    <circle cx="760" cy="142" r="5"/>
    <circle cx="1038" cy="260" r="4"/>
    <circle cx="660" cy="616" r="3"/>
    <circle cx="1130" cy="478" r="6"/>
  </g>
</svg>
